<?xml version="1.0" encoding="utf-8" ?>
<svg xmlns="http://www.w3.org/2000/svg" xmlns:xlink="http://www.w3.org/1999/xlink" width="1024" height="768">
	<path fill="#2E5A99" d="M579.74 17.2067C581.373 17.1474 583.021 16.9553 584.274 18.1988C585.239 19.1562 585.747 20.5988 586.006 21.9046C587.689 30.4044 588.436 39.3195 589.591 47.9216L596.407 97.9187L602.715 142.242C604.018 151.332 605.683 160.566 606.161 169.738C594.737 172.273 583.377 174.829 572.231 178.465C565.546 180.646 539.467 193.181 535.411 192.023C532.188 191.104 519.833 167.588 517.345 163.228C509.509 149.422 461.869 66.3985 461.482 60.3543C461.421 59.4021 462.213 58.2439 462.808 57.556C466.338 53.4757 473.554 50.9818 478.324 48.7017C507.101 34.9455 547.935 20.1514 579.74 17.2067Z"/>
	<path fill="#2E5A99" d="M547.715 576.45C556.91 577.486 566.394 581.703 575.234 584.408C583.197 586.845 591.474 588.741 599.274 591.631C601.212 592.348 602.89 593.256 604.593 594.419C602.812 620.378 597.184 650.188 593.199 676.231L587.428 714.343C586.351 721.562 585.584 728.969 584.055 736.104C583.37 739.301 582.472 742.167 580.798 744.982C573.019 747.727 521.746 731.92 511.382 728.231C493.272 721.854 447.606 701.894 435.79 687.323C440.606 680.925 446.732 675.038 452.263 669.246Q471.281 649.667 490.687 630.473L520.045 601.206C528.151 593.146 537.972 582.333 547.715 576.45Z"/>
	<path fill="#2E5A99" d="M410.951 92.9591C412.697 93.3938 413.881 94.3057 415.123 95.5821C425.946 106.709 437.766 123.458 447.569 135.991Q477.586 174.089 506.933 212.706C497.189 222.581 487.056 232.179 476.933 241.666C467.594 242.311 457.982 241.863 448.615 241.864L395.75 241.852C384.783 241.863 302.552 242.628 299.662 239.868C299.257 233.826 306.07 222.205 308.724 216.696C328.222 176.217 355.647 140.954 388.312 110.269C395.007 103.98 402.132 96.0391 410.951 92.9591Z"/>
	<path fill="#2E5A99" d="M645.016 12.6152C658.866 11.9036 673.239 13.0246 686.968 14.8618Q691.516 15.4522 696.047 16.1547Q700.579 16.8573 705.092 17.6716Q709.605 18.4859 714.096 19.4114Q718.588 20.337 723.055 21.3732Q727.522 22.4095 731.962 23.5558Q736.402 24.702 740.813 25.9577Q745.224 27.2133 749.602 28.5776Q753.98 29.9418 758.323 31.4138Q762.666 32.8858 766.972 34.4647Q771.277 36.0435 775.542 37.7283Q779.807 39.413 784.029 41.2026Q788.252 42.9922 792.428 44.8856Q796.605 46.779 800.734 48.775Q804.862 50.771 808.94 52.8684Q813.018 54.9658 817.043 57.1633Q821.068 59.3608 825.038 61.6571Q829.007 63.9533 832.919 66.347Q836.83 68.7407 840.681 71.2302Q844.533 73.7198 848.321 76.3038Q852.109 78.8877 855.833 81.5645Q859.557 84.2413 863.213 87.0092Q866.869 89.7772 870.456 92.6346Q874.042 95.4921 877.557 98.4372Q881.072 101.382 884.514 104.414Q887.955 107.445 891.32 110.56Q894.685 113.675 897.973 116.873Q901.26 120.07 904.467 123.348Q907.674 126.625 910.799 129.981Q913.925 133.337 916.966 136.769Q920.008 140.201 922.963 143.708Q925.919 147.214 928.787 150.792Q931.655 154.37 934.434 158.018Q937.148 161.608 939.773 165.262Q942.398 168.917 944.934 172.634Q947.469 176.352 949.913 180.13Q952.357 183.909 954.709 187.745Q957.06 191.582 959.317 195.475Q961.574 199.368 963.735 203.314Q965.897 207.261 967.962 211.259Q970.026 215.258 971.993 219.305Q973.959 223.352 975.827 227.446Q977.694 231.54 979.461 235.679Q981.228 239.817 982.894 243.997Q984.56 248.178 986.123 252.397Q987.686 256.617 989.146 260.873Q990.606 265.13 991.962 269.421Q993.317 273.711 994.568 278.034Q995.819 282.356 996.964 286.708Q998.109 291.06 999.148 295.438Q1000.19 299.817 1001.12 304.219Q1002.05 308.621 1002.87 313.045Q1003.7 317.469 1004.41 321.911Q1005.13 326.354 1005.74 330.812Q1006.34 335.271 1006.84 339.743Q1007.34 344.215 1007.73 348.698Q1008.12 353.181 1008.4 357.673Q1008.68 362.164 1008.85 366.66Q1009.02 371.157 1009.08 375.656Q1009.14 380.156 1009.1 384.655Q1009.05 389.155 1008.89 393.652Q1008.73 398.149 1008.46 402.641Q1008.19 407.133 1007.82 411.617Q1007.44 416.101 1006.95 420.574Q1006.47 425.048 1005.87 429.508C992.707 526.564 944.675 613.218 866.398 672.616Q856.699 680.039 846.54 686.821Q836.382 693.603 825.807 699.715Q815.232 705.826 804.285 711.243Q793.337 716.659 782.063 721.357C778.832 722.71 771.554 726.601 768.091 726.124C767.96 726.262 767.834 726.404 767.699 726.538C765.719 728.486 756.624 730.855 753.745 731.758C735.988 737.328 717.483 742.312 699.132 745.497C692.1 746.717 684.895 747.413 677.807 748.297C668.616 749.443 659.46 750.664 650.175 750.559C647.682 750.531 644.519 750.756 642.68 748.89C640.079 737.79 641.212 716.868 641.074 704.975C640.653 668.784 640.132 632.52 641.605 596.346C651.745 593.62 662.885 593.754 673.268 592.03Q676.24 591.544 679.198 590.975Q682.156 590.406 685.096 589.756Q688.037 589.106 690.959 588.374Q693.88 587.642 696.781 586.83Q699.681 586.018 702.557 585.125Q705.434 584.233 708.285 583.261Q711.135 582.289 713.958 581.238Q716.781 580.188 719.573 579.059Q722.366 577.931 725.126 576.725Q727.886 575.52 730.611 574.238Q733.337 572.957 736.026 571.6Q738.715 570.243 741.365 568.813Q744.016 567.382 746.625 565.879Q749.235 564.375 751.802 562.799Q754.369 561.224 756.891 559.578Q759.413 557.932 761.889 556.217Q764.06 554.68 766.194 553.09Q768.327 551.5 770.421 549.859Q772.515 548.218 774.568 546.526Q776.621 544.834 778.633 543.093Q780.644 541.351 782.613 539.561Q784.581 537.772 786.506 535.934Q788.43 534.097 790.309 532.213Q792.187 530.33 794.02 528.401Q795.852 526.472 797.637 524.499Q799.422 522.526 801.158 520.51Q802.894 518.494 804.581 516.436Q806.267 514.379 807.903 512.28Q809.539 510.182 811.123 508.045Q812.708 505.907 814.239 503.732Q815.771 501.557 817.249 499.345Q818.727 497.133 820.151 494.885Q821.575 492.638 822.944 490.356Q824.312 488.075 825.625 485.761Q826.938 483.446 828.193 481.101Q829.449 478.755 830.648 476.38Q831.846 474.005 832.986 471.601Q834.126 469.197 835.207 466.766Q836.288 464.335 837.31 461.878Q838.331 459.422 839.293 456.941Q840.254 454.46 841.154 451.957Q842.055 449.453 842.894 446.929Q843.734 444.404 844.511 441.86Q845.289 439.315 846.004 436.753Q846.719 434.19 847.372 431.611Q848.024 429.032 848.614 426.437Q849.203 423.843 849.729 421.235Q850.256 418.627 850.718 416.007C852.64 404.985 852.915 393.678 852.942 382.513C852.965 372.926 852.876 363.162 851.748 353.631C847.715 319.568 833.78 285.981 814.046 258.071Q812.643 256.101 811.196 254.163Q809.749 252.225 808.26 250.32Q806.77 248.415 805.238 246.544Q803.706 244.672 802.133 242.835Q800.56 240.999 798.946 239.197Q797.333 237.396 795.679 235.631Q794.026 233.866 792.333 232.139Q790.641 230.411 788.91 228.722Q787.18 227.033 785.412 225.382Q783.644 223.732 781.84 222.122Q780.035 220.511 778.196 218.942Q776.356 217.372 774.482 215.843Q772.607 214.315 770.7 212.829Q768.792 211.343 766.851 209.9Q764.911 208.456 762.938 207.057Q760.966 205.657 758.963 204.302Q756.96 202.947 754.927 201.637Q752.894 200.326 750.833 199.062Q748.771 197.797 746.682 196.579Q744.593 195.361 742.477 194.19Q740.361 193.018 738.22 191.894Q736.078 190.771 733.912 189.695Q731.746 188.619 729.557 187.592Q727.368 186.565 725.156 185.587Q722.944 184.609 720.711 183.68Q718.478 182.752 716.225 181.873Q713.971 180.995 711.699 180.167Q709.427 179.339 707.137 178.562Q704.846 177.785 702.539 177.059Q700.233 176.333 697.91 175.659Q695.587 174.985 693.25 174.363Q690.913 173.741 688.563 173.171C672.955 169.527 657.209 168.808 641.501 166.118C639.993 157.339 640.58 147.503 640.561 138.581Q640.459 114.438 640.902 90.2998C641.281 67.9567 640.424 41.7691 642.86 20.0078C643.158 17.3444 643.518 14.9042 645.016 12.6152Z"/>
	<path fill="#868787" d="M82.2379 259.23C121.36 258.126 160.698 258.765 199.837 258.792L385.439 259.067C389.448 265.577 392.712 272.985 397.319 279.047C398.359 280.415 399.239 281.44 400.997 281.678C405.463 280.217 412.429 264.6 415.56 260.012L415.854 259.585C441.613 260.106 467.468 259.607 493.239 259.57L653.797 259.274L715.7 259.47C727.379 259.529 740.099 258.839 751.654 260.474C760.902 261.784 771.293 265.12 778.104 271.807C784.051 277.645 786.516 285.422 786.511 293.628C786.506 300.996 784.103 309.433 779.727 315.46C774.764 322.295 767.819 328.459 761.914 334.532L722.437 374.455L581.653 515.865L480.727 616.169L447.671 648.88C441.02 655.345 434.398 662.236 426.953 667.783C420.178 672.83 412.702 676.952 404.099 677.347C389.207 678.032 375.772 666.816 365.413 657.259C337.343 631.362 310.762 603.505 283.74 576.505L145.794 438.366L67.6429 359.413Q53.32 345.047 39.1931 330.489C33.796 324.943 27.9066 319.438 23.1199 313.355C18.1603 307.054 15.0179 299.066 14.7535 291.016C14.5155 283.771 16.8037 276.017 21.8762 270.7C34.8944 257.055 64.5782 259.553 82.2379 259.23Z"/>
	<path fill="#D3D3D3" d="M69.6772 281.738L265.567 281.794C304.408 281.783 343.34 281.218 382.169 281.972C387.62 292.638 393.888 303.877 400.576 313.807C407.288 303.62 413.083 292.557 419.191 281.99C421.547 281.853 423.916 281.867 426.276 281.851L636.023 281.932L706.154 281.949C718.277 281.953 730.902 281.207 742.952 282.258C748.541 282.745 757.53 283.895 761.604 288.217C763.038 289.739 763.657 291.603 763.608 293.676C763.503 298.169 761.135 302.005 758.383 305.397C752.14 313.092 744.607 319.989 737.6 326.994L698.747 365.529L586.606 477.853L476.798 587.461L440.351 623.868C432.176 632.034 424.166 640.528 415.313 647.966C412.201 650.58 407.518 654.27 403.259 654.436C396.286 654.707 389.655 648.322 384.807 643.996C365.694 626.94 347.239 606.785 329.155 588.497L239.288 498.583L118.15 377.471L74.0193 333.395C65.7116 325.085 57.0749 316.928 49.1519 308.254C45.0341 303.746 37.6055 296.604 37.4676 290.177C37.439 288.844 37.6435 287.573 38.6261 286.6C44.1155 281.166 61.8948 281.87 69.6772 281.738Z"/>
</svg>
